<?xml version="1.0" encoding="utf-8"?>
<!-- Generator: Adobe Illustrator 26.3.1, SVG Export Plug-In . SVG Version: 6.00 Build 0)  -->
<svg version="1.1" id="Layer_1" xmlns="http://www.w3.org/2000/svg" xmlns:xlink="http://www.w3.org/1999/xlink" x="0px" y="0px"
	 viewBox="0 0 870.3 805.8" style="enable-background:new 0 0 870.3 805.8;" xml:space="preserve">
<style type="text/css">
	.st0{fill:#2B76BC;}
	.st1{fill:#FFFFFF;}
	.st2{opacity:0.25;fill:#2B76BC;enable-background:new    ;}
	.st3{fill:#91B8DC;}
	.st4{fill:#367DC0;}
</style>
<g>
	<path class="st0" d="M776.8,291.6c-18.7-44.2-45.4-83.8-79.5-117.9c-34-34.1-73.7-60.8-117.9-79.5C533.8,75,485.2,65.2,435.2,65.2
		S336.5,75,290.8,94.3C246.7,113,207,139.7,173,173.8c-34.1,34.1-60.8,73.7-79.5,117.9C74.2,337.4,64.4,385.9,64.4,436
		s9.8,98.6,29.2,144.3c18.7,44.2,45.4,83.8,79.5,117.9c34,34,73.7,60.8,117.9,79.5c45.7,19.3,94.3,29.2,144.3,29.2
		s98.6-9.8,144.4-29.2c44.2-18.7,83.8-45.4,117.9-79.5c34-34,60.8-73.7,79.5-117.9C796.2,534.6,806,486,806,436
		S796.2,337.4,776.8,291.6z M739.6,564.6c-16.6,39.3-40.5,74.7-70.8,105c-30.3,30.3-65.7,54.2-105,70.8c-40.7,17.2-84,26-128.6,26
		s-87.9-8.8-128.6-26c-39.3-16.7-74.7-40.5-105-70.8c-30.4-30.4-54.2-65.7-70.8-105c-17.2-40.7-26-84-26-128.6s8.7-87.9,26-128.6
		c16.6-39.3,40.4-74.7,70.8-105c30.4-30.4,65.7-54.2,105-70.8c40.7-17.2,84-26,128.6-26s87.9,8.7,128.6,26
		c39.3,16.6,74.7,40.5,105,70.8c30.4,30.4,54.2,65.7,70.8,105c17.2,40.7,26,84,26,128.6S756.9,523.9,739.6,564.6L739.6,564.6z"/>
	<g>
		<g>
			<path class="st0" d="M723.2,352.3l-44.7,13c-0.6-1.2-1.4-2.4-2.3-3.5l-1.2-1.5l46.2-14.6C721.9,348,722.5,350.2,723.2,352.3
				L723.2,352.3z"/>
			<path class="st0" d="M711.7,319.8l-52.2,21.9l7.6,9.1l49.6-18.2C715.2,328.4,713.5,324.1,711.7,319.8L711.7,319.8z M158.7,319.7
				c-1.8,4.2-3.5,8.5-5.1,12.8l49.7,18.2l7.6-9.1L158.7,319.7z M699.8,294.9l-54.9,29.3l7.2,8.7l53.9-25.7
				C704.1,303.1,702,298.9,699.8,294.9z M170.6,294.8c-2.1,4-4.2,8.2-6.2,12.3l53.9,25.7l7.2-8.7L170.6,294.8z M184.7,271.1
				c-2.5,3.8-5,7.8-7.3,11.7l55.2,32.9l7-8.4L184.7,271.1L184.7,271.1z M201,248.5c-2.8,3.6-5.7,7.2-8.3,10.9l53.9,39.2l6.8-8.2
				L201,248.5L201,248.5z M651.4,227.8l-47.9,46.1l6.9,8.3l50.4-44.2C657.8,234.5,654.6,231.1,651.4,227.8L651.4,227.8z
				 M219.1,227.8c-3.2,3.3-6.3,6.7-9.3,10.1l50.4,44.2l6.9-8.3L219.1,227.8L219.1,227.8z M631.5,208.8l-41.8,48.3l7,8.4l45.1-47.5
				C638.4,214.9,634.9,211.8,631.5,208.8L631.5,208.8z M239.1,208.8c-3.5,3-6.9,6.1-10.2,9.2l45,47.5l7-8.4L239.1,208.8L239.1,208.8
				z M609.8,191.8l-35.7,49.9c2.6,1.1,5,2.9,6.9,5.1l1.6,1.9l38.3-48.6C617.3,197.2,613.5,194.4,609.8,191.8L609.8,191.8z
				 M260.8,191.7c-3.7,2.7-7.4,5.4-11,8.3l38.3,48.6l1.5-1.9c1.9-2.3,4.3-4,6.9-5.1L260.8,191.7L260.8,191.7z M586.7,176.7
				l-37.2,63.5H562l36.5-56.2C594.6,181.5,590.7,179.1,586.7,176.7L586.7,176.7z M283.9,176.7c-4,2.3-7.9,4.8-11.7,7.2l36.5,56.2
				h12.4L283.9,176.7L283.9,176.7z M562.3,163.9l-35.7,76.3h11.2l36.9-70.2C570.6,167.9,566.5,165.9,562.3,163.9L562.3,163.9z
				 M308.4,163.9c-4.2,1.9-8.3,4-12.4,6.1l36.9,70.2h11.2L308.4,163.9z M536.8,153.4l-31.2,86.9h10.3l33.8-81.9
				C545.4,156.6,541.1,154.9,536.8,153.4z M333.9,153.3c-4.3,1.6-8.7,3.2-12.9,5l33.8,81.9h10.3L333.9,153.3L333.9,153.3z
				 M510.5,145.3l-24.6,95h9.7l28.1-91.2C519.3,147.7,514.9,146.4,510.5,145.3L510.5,145.3z M360.4,145.2c-4.5,1.1-8.9,2.4-13.3,3.8
				l28.1,91.3h9.7L360.4,145.2z M483.4,139.6l-16.3,100.7h9.3l20.6-98.1C492.5,141.2,488,140.3,483.4,139.6L483.4,139.6z
				 M387.4,139.6c-4.5,0.7-9.1,1.6-13.6,2.5l20.5,98.2h9.3L387.4,139.6L387.4,139.6z M456,136.5l-7.1,103.8h9.1l11.8-102.6
				C465.2,137.2,460.6,136.8,456,136.5z M414.8,136.4c-4.6,0.3-9.2,0.7-13.7,1.2l11.7,102.6h9.1L414.8,136.4z M428.6,135.8
				l2.3,104.5h9l2.4-104.5C437.8,135.7,433.1,135.7,428.6,135.8L428.6,135.8z"/>
			<path class="st0" d="M149.1,345.8l46.2,14.6l-1.2,1.5c-0.9,1.1-1.7,2.2-2.3,3.5l-44.7-13C147.8,350.2,148.4,348,149.1,345.8
				L149.1,345.8z"/>
		</g>
		<g>
			<path class="st0" d="M204,505.3l-56.1,16.8c-0.7-2.2-1.3-4.4-1.9-6.6l54.3-14.9C201.3,502.4,202.5,504,204,505.3L204,505.3z"/>
			<path class="st0" d="M410.7,589.5l-22.5,142.7c4.4,0.7,8.9,1.3,13.3,1.8l16-143.6C415.3,590.2,413,589.8,410.7,589.5L410.7,589.5
				z"/>
			<path class="st0" d="M414.9,735.2c4.4,0.3,8.9,0.5,13.4,0.6l3.2-144.4c-2.3,0-4.7-0.2-7-0.3L414.9,735.2L414.9,735.2z"/>
			<path class="st0" d="M319,615.5c-3.1,2.4-6.8,3.6-10.7,3.6l-44,63.3c3.7,2.5,7.4,5,11.2,7.4l49.9-79.2L319,615.5L319,615.5z"/>
			<path class="st0" d="M370.9,577.5L311,709c4.1,1.8,8.2,3.6,12.4,5.3l53.9-134C375.1,579.4,373,578.5,370.9,577.5L370.9,577.5z"/>
			<path class="st0" d="M397.1,586.7l-35.2,140.1c4.3,1.1,8.8,2.1,13.1,3l28.9-141.5C401.6,587.8,399.3,587.3,397.1,586.7
				L397.1,586.7z"/>
			<path class="st0" d="M383.8,582.7L336,719c4.2,1.5,8.5,2.9,12.8,4.2l41.5-138.4C388.1,584.2,385.9,583.5,383.8,582.7L383.8,582.7
				z"/>
			<path class="st0" d="M344,596.6l-57,100.1c3.9,2.2,7.9,4.4,11.8,6.4l60.2-117.9L344,596.6L344,596.6z"/>
			<path class="st0" d="M279.9,506.4L162.1,560c1.9,4.1,3.8,8.2,5.9,12.2l123.8-63.2L279.9,506.4z"/>
			<path class="st0" d="M299.9,512.6L174.3,584c2.2,3.9,4.5,7.8,6.9,11.6l122.2-77C302.3,516.6,301.1,514.6,299.9,512.6L299.9,512.6
				z"/>
			<path class="st0" d="M263.8,498.4l-1.5-2L152,534.9c1.5,4.2,3.1,8.5,4.7,12.6l111.7-44.8C266.7,501.6,265.1,500.1,263.8,498.4
				L263.8,498.4z"/>
			<path class="st0" d="M306.6,543.3L205,628.2c2.9,3.4,5.8,6.8,8.9,10.1l88.5-80.9L306.6,543.3L306.6,543.3z"/>
			<path class="st0" d="M311.4,530l-0.6-0.8c-1.2-1.6-2.4-3.2-3.5-4.8l-118.7,82.4c2.5,3.7,5.2,7.3,7.9,10.9L310.3,531l1.1-0.8
				C311.4,530.1,311.4,530,311.4,530L311.4,530z"/>
			<path class="st0" d="M297.4,573.8L223.1,648c3.1,3.2,6.4,6.3,9.7,9.3l58.7-64.1L297.4,573.8L297.4,573.8z"/>
			<path class="st0" d="M297.7,615.8c-2.9-2-5-4.7-6.3-7.7l-48.5,58c3.4,2.9,6.9,5.7,10.5,8.4l44.6-58.5
				C297.9,616,297.8,615.9,297.7,615.8L297.7,615.8z"/>
			<path class="st0" d="M581.3,559.2h-11.2l86.4,79c3-3.3,6-6.7,8.8-10.1l-82.5-69C582.3,559.2,581.8,559.2,581.3,559.2L581.3,559.2
				z"/>
			<path class="st0" d="M547.8,559.2l89.7,98c3.3-3,6.6-6.1,9.7-9.3l-88.8-88.7L547.8,559.2L547.8,559.2z"/>
			<path class="st0" d="M592.3,555.5l81.5,62.1c2.7-3.5,5.4-7.2,7.9-10.9l-83.8-58.2C596.6,551.3,594.6,553.7,592.3,555.5
				L592.3,555.5z"/>
			<path class="st0" d="M530.7,558.5c-0.5,0.4-1,0.8-1.4,1.1l87.6,114.9c3.5-2.7,7.1-5.5,10.5-8.4L539,560.4
				C536,560.2,533.2,559.6,530.7,558.5L530.7,558.5z"/>
			<path class="st0" d="M599.5,539.2l89.6,56.4c2.4-3.8,4.7-7.7,6.9-11.5l-96.5-54.8L599.5,539.2L599.5,539.2z"/>
			<path class="st0" d="M599.6,493.5l0,8.4l113.9,45.8c1.7-4.1,3.3-8.4,4.7-12.6L599.6,493.5L599.6,493.5z"/>
			<path class="st0" d="M599.5,519.7l102.8,52.5c2-4,4-8.1,5.8-12.1l-108.7-49.4L599.5,519.7z"/>
			<path class="st0" d="M516.1,587.8c-0.9,0.5-1.9,1-2.9,1.4l58.2,114c4-2,8-4.2,11.9-6.4L519.7,585
				C518.6,586.1,517.4,587,516.1,587.8L516.1,587.8z"/>
			<path class="st0" d="M466.4,588.3l28.8,141.6c4.4-0.9,8.8-1.9,13.1-3l-35.1-140.1C470.9,587.3,468.6,587.8,466.4,588.3
				L466.4,588.3z"/>
			<path class="st0" d="M479.9,584.9l41.5,138.4c4.3-1.3,8.6-2.7,12.8-4.2l-47.7-136.4C484.3,583.5,482.1,584.2,479.9,584.9
				L479.9,584.9z"/>
			<path class="st0" d="M452.6,590.4L468.5,734c4.4-0.5,8.9-1.1,13.3-1.8l-22.4-142.7C457.2,589.8,454.9,590.2,452.6,590.4z"/>
			<path class="st0" d="M438.6,591.3l3.1,144.4c4.5-0.1,9-0.3,13.4-0.6L445.6,591C443.3,591.2,441,591.3,438.6,591.3L438.6,591.3z"
				/>
			<path class="st0" d="M528,570c-0.7,2.9-1.9,5.6-3.6,8l70.5,111.9c3.8-2.4,7.6-4.9,11.2-7.4L528,570L528,570z"/>
			<path class="st0" d="M505.2,590.2c-2.5-0.2-4.9-1-7.1-2.2l-0.6-0.3c-0.6-0.2-1.1-0.4-1.7-0.6l51,127.2c4.2-1.7,8.3-3.5,12.4-5.3
				L505.2,590.2L505.2,590.2z"/>
			<path class="st0" d="M724.3,515.5c-0.6,2.2-1.2,4.4-1.9,6.6l-122.8-36.8v-4L724.3,515.5L724.3,515.5z"/>
		</g>
	</g>
	<g>
		<rect x="-0.4" y="604.6" class="st0" width="871.1" height="201.2"/>
		<path class="st0" d="M870.9,806H-0.6V604.5h871.4V806z M-0.3,805.7h870.9V604.8H-0.3V805.7z"/>
	</g>
	<g>
		<g>
			<path class="st0" d="M278.5,238.2l51.9-63.6c5-6.1,12.4-9.6,20.2-9.6h170.9c8,0,15.5,3.7,20.5,9.9l49.9,63.2L278.5,238.2
				L278.5,238.2z"/>
			<path class="st0" d="M592,238.3H278.3l0.1-0.1l51.9-63.6c5-6.1,12.4-9.6,20.3-9.6h170.9c8.1,0,15.6,3.6,20.5,10L592,238.3
				L592,238.3z M278.7,238.1h313L541.9,175c-5-6.3-12.4-9.9-20.4-9.9H350.6c-7.8,0-15.2,3.5-20.1,9.6L278.7,238.1L278.7,238.1z"/>
		</g>
		<g>
			<path class="st0" d="M868.1,361.5l-31.4,25.6c-15.3,12.5-32.9,19.1-50.9,19.1H673l10.5-12.6c5.5-6.6,8.1-15.3,7.1-23.7
				c0-0.2,0-0.5-0.1-0.7c-0.7-5.5-2.9-10.8-6.4-15.2h182.5C869.6,354.1,870.7,359.4,868.1,361.5L868.1,361.5z"/>
			<path class="st0" d="M785.8,406.4h-113l0.1-0.1l10.5-12.6c5.5-6.6,8-15.2,7.1-23.7c0-0.2-0.1-0.5-0.1-0.7
				c-0.7-5.5-2.9-10.8-6.3-15.2l-0.1-0.1h182.6c1.2,0,2.3,0.9,2.8,2.3c0.6,1.7,0.4,4-1.2,5.3l-31.4,25.6
				C821.4,399.7,803.8,406.4,785.8,406.4L785.8,406.4z M673.1,406.2h112.7c18,0,35.5-6.6,50.9-19.1l31.4-25.6
				c1.5-1.2,1.7-3.5,1.1-5.1c-0.5-1.4-1.5-2.2-2.6-2.2H684.3c3.4,4.4,5.5,9.6,6.3,15.1c0,0.2,0.1,0.4,0.1,0.7
				c1,8.5-1.6,17.2-7.1,23.8L673.1,406.2L673.1,406.2z"/>
		</g>
		<g>
			<path class="st0" d="M787.2,428.3l-53.1,44.8h-82.6c0,6.9,4.2,12.4,9.3,12.4h44.7c3.1,0,4.2,5.4,1.5,7.5l-55.7,44.6v0.1l-0.1,0
				l0,0l-42.5,12.6c1.4-3.6,2.2-7.4,2.2-11.5l0.2-59.1c1.6-1.3,3-2.7,4.3-4.3l45.4-54.6h124.8C788.6,420.9,789.7,426.2,787.2,428.3
				L787.2,428.3z"/>
			<path class="st0" d="M608.6,550.5l0.1-0.2c1.4-3.7,2.2-7.5,2.2-11.4l0.2-59.1l0,0c1.5-1.3,3-2.7,4.3-4.3l45.4-54.7h124.8
				c1.2,0,2.3,0.9,2.8,2.3c0.6,1.6,0.4,4-1.1,5.3l-53.1,44.8h-82.6c0,3.3,1,6.3,2.7,8.6c1.7,2.3,4,3.6,6.5,3.6h44.7
				c1.2,0,2.3,0.9,2.8,2.3c0.6,1.7,0.4,4-1.2,5.3l-55.7,44.6v0.1l-0.2,0.1L608.6,550.5L608.6,550.5z M611.2,479.9l-0.2,59
				c0,3.9-0.7,7.7-2.1,11.3l42.4-12.6v0l0,0L707,493c1.5-1.2,1.7-3.5,1.1-5.1c-0.5-1.4-1.5-2.2-2.6-2.2h-44.7
				c-2.5,0-4.9-1.3-6.7-3.7c-1.8-2.4-2.7-5.5-2.7-8.8V473h82.7l53.1-44.8c1.5-1.2,1.7-3.5,1.1-5.1c-0.5-1.4-1.5-2.2-2.6-2.2H660.9
				l-45.4,54.6C614.2,477.2,612.7,478.6,611.2,479.9L611.2,479.9z"/>
		</g>
		<g>
			<path class="st0" d="M192.5,473.1h-56.3l-53.1-44.8c-2.6-2.1-1.4-7.4,1.6-7.4h124.9c0.1,0,0.1,0,0.2,0c1.4,1.6,2.5,2.9,3.3,3.8
				c-0.1,0.8-0.1,1.4-0.1,1.6c-0.7,8.7,2.3,17.4,8.2,23.8c-6.4,3.9-11.3,7-14.9,9.5c-3,2.1-5.2,3.8-7.1,5.6c-2.2,2-4.1,4.1-5.6,6.3
				C193.2,472.1,192.8,472.6,192.5,473.1L192.5,473.1z"/>
			<path class="st0" d="M192.6,473.2h-56.4l0,0l-53.1-44.8c-1.5-1.3-1.7-3.6-1.1-5.3c0.5-1.4,1.6-2.3,2.8-2.3h124.9
				c0.1,0,0.1,0,0.2,0h0l0,0c1.4,1.7,2.5,2.9,3.3,3.8l0,0v0c-0.1,0.8-0.1,1.4-0.1,1.6c-0.7,8.7,2.3,17.4,8.2,23.8l0.1,0.1l-0.1,0
				c-6.4,3.9-11.3,7-14.9,9.5c-3,2.1-5.3,3.9-7.1,5.6c-2.2,2-4,4.1-5.6,6.3C193.2,472.1,192.9,472.6,192.6,473.2L192.6,473.2
				L192.6,473.2z M136.3,473h56.2c0.3-0.5,0.6-1,1-1.5c1.6-2.3,3.4-4.3,5.6-6.3c1.9-1.7,4.1-3.5,7.1-5.6c3.7-2.5,8.5-5.7,14.9-9.5
				c-5.9-6.5-8.8-15.1-8.2-23.8c0-0.2,0.1-0.8,0.1-1.6c-0.8-0.9-1.8-2.1-3.2-3.7c-0.1,0-0.1,0-0.2,0H84.7c-1.1,0-2.1,0.8-2.6,2.2
				c-0.6,1.6-0.4,3.9,1.1,5.1L136.3,473L136.3,473z"/>
		</g>
		<g>
			<path class="st0" d="M84.5,406.3c-18,0-35.6-6.6-50.9-19.1L2.2,361.5c-2.6-2.1-1.5-7.5,1.6-7.5h182.4c-3.4,4.4-5.6,9.6-6.4,15.2
				c0,0.2-0.1,0.5-0.1,0.7c-1,8.5,1.6,17.2,7.1,23.8c4.1,4.9,7.6,9,10.6,12.6L84.5,406.3L84.5,406.3z"/>
			<path class="st0" d="M197.7,406.4H84.5c-18,0-35.6-6.6-51-19.2L2.2,361.6c-1.5-1.3-1.8-3.6-1.2-5.3c0.5-1.5,1.6-2.3,2.8-2.3
				h182.6l-0.1,0.1c-3.4,4.4-5.6,9.6-6.3,15.1v0.1c0,0.2-0.1,0.4-0.1,0.6c-1,8.5,1.6,17.2,7.1,23.8c4,4.8,7.6,9,10.6,12.6
				L197.7,406.4L197.7,406.4z M3.8,354.2c-1.2,0-2.1,0.8-2.6,2.2c-0.6,1.6-0.4,3.9,1.1,5.1l31.4,25.6c15.3,12.5,32.9,19.1,50.9,19.1
				h112.8c-3-3.5-6.4-7.7-10.4-12.4c-5.5-6.6-8.1-15.3-7.1-23.9c0-0.2,0-0.4,0.1-0.6v-0.1c0.7-5.5,2.9-10.7,6.3-15.1L3.8,354.2
				L3.8,354.2z"/>
		</g>
		<g>
			<path class="st0" d="M274,517l25.6,5.4l-11,36.4l-69.7-20.6l-55.7-44.6c-2.6-2.1-1.5-7.5,1.6-7.5h23.1c-0.7,5.4,0,11,2.1,16.3
				c4.9,11.9,16.4,19.6,29.3,19.6l0,0c3.9,0,7.8-0.7,11.5-2.2l27.9-10.9C263,512.9,268.2,515.7,274,517L274,517z"/>
			<path class="st0" d="M288.7,558.9L288.7,558.9l-69.8-20.6h0l-55.7-44.6c-1.6-1.2-1.8-3.6-1.2-5.3c0.5-1.5,1.6-2.3,2.8-2.3H188
				v0.1c-0.7,5.5,0,11.1,2.1,16.2c4.9,11.9,16.4,19.6,29.2,19.6c3.9,0,7.8-0.7,11.5-2.2l28-10.9l0,0c4.2,4,9.5,6.8,15.2,8l25.7,5.5
				l0,0.1L288.7,558.9L288.7,558.9z M219,538.1l69.6,20.6l11-36.2l-25.5-5.4c-5.7-1.2-11-4-15.3-8l-27.9,10.9
				c-3.7,1.4-7.6,2.2-11.5,2.2c-12.9,0-24.4-7.7-29.4-19.7c-2.1-5.1-2.9-10.7-2.1-16.2h-23c-1.2,0-2.1,0.8-2.6,2.2
				c-0.6,1.6-0.4,3.9,1.1,5.1L219,538.1L219,538.1z"/>
		</g>
	</g>
	<g>
		<g>
			<path class="st1" d="M372.5,203.1h8.5v-8.7h3v19.7h-3v-8.2h-8.5v8.2h-3v-19.7h3V203.1z"/>
			<g>
				<g>
					<path class="st1" d="M386.5,207.8c0-1.8,0.6-3.3,1.9-4.6c1.3-1.3,2.8-1.9,4.7-1.9s3.4,0.6,4.7,1.9c1.3,1.3,1.9,2.8,1.9,4.7
						s-0.6,3.4-1.9,4.7c-1.3,1.2-2.9,1.9-4.8,1.9s-3.4-0.6-4.7-1.9C387.1,211.3,386.5,209.7,386.5,207.8L386.5,207.8z M389.4,207.8
						c0,1.2,0.3,2.2,1,2.9c0.7,0.7,1.6,1.1,2.7,1.1s2-0.4,2.7-1.1s1-1.7,1-2.9s-0.3-2.2-1-2.9c-0.7-0.7-1.6-1.1-2.7-1.1
						s-2,0.4-2.7,1.1S389.4,206.7,389.4,207.8L389.4,207.8z"/>
					<path class="st1" d="M405.1,201.7v7.1c0,2.1,0.8,3.1,2.4,3.1s2.4-1,2.4-3.1v-7.1h2.9v7.2c0,1-0.1,1.9-0.4,2.6
						c-0.2,0.6-0.6,1.2-1.2,1.7c-1,0.8-2.2,1.3-3.7,1.3s-2.7-0.4-3.7-1.3c-0.6-0.5-1-1.1-1.3-1.7c-0.2-0.6-0.4-1.4-0.4-2.6v-7.2
						H405.1L405.1,201.7z"/>
					<path class="st1" d="M423.4,203.8l-2.4,1.3c-0.4-0.8-0.8-1.1-1.4-1.1c-0.3,0-0.5,0.1-0.7,0.3s-0.3,0.4-0.3,0.7
						c0,0.5,0.5,0.9,1.7,1.4c1.5,0.6,2.5,1.3,3.1,1.8s0.8,1.3,0.8,2.2c0,1.2-0.4,2.2-1.3,3c-0.9,0.8-1.9,1.1-3.1,1.1
						c-2.1,0-3.5-1-4.4-3l2.4-1.1c0.3,0.6,0.6,1,0.8,1.1c0.4,0.3,0.8,0.5,1.2,0.5c1,0,1.5-0.4,1.5-1.3c0-0.5-0.4-1-1.1-1.4
						c-0.3-0.1-0.6-0.3-0.9-0.4s-0.6-0.3-0.9-0.4c-0.8-0.4-1.4-0.8-1.8-1.2c-0.4-0.5-0.6-1.2-0.6-2c0-1.1,0.4-2,1.1-2.7
						c0.8-0.7,1.7-1.1,2.8-1.1C421.5,201.3,422.6,202.2,423.4,203.8L423.4,203.8z"/>
					<path class="st1" d="M438.7,208.6h-8.9c0.1,1,0.4,1.8,1,2.4c0.6,0.6,1.3,0.9,2.2,0.9c0.7,0,1.3-0.2,1.8-0.5
						c0.5-0.3,1-1,1.6-1.9l2.4,1.4c-0.4,0.6-0.8,1.2-1.2,1.6s-0.9,0.8-1.3,1.1s-1,0.5-1.5,0.6c-0.5,0.1-1.1,0.2-1.8,0.2
						c-1.9,0-3.3-0.6-4.5-1.8c-1.1-1.2-1.7-2.8-1.7-4.8s0.5-3.6,1.6-4.8c1.1-1.2,2.5-1.8,4.4-1.8s3.3,0.6,4.3,1.7
						c1,1.1,1.6,2.8,1.6,4.8L438.7,208.6L438.7,208.6z M435.7,206.2c-0.4-1.5-1.4-2.3-2.9-2.3c-0.4,0-0.7,0.1-1,0.2
						s-0.6,0.3-0.8,0.5s-0.5,0.4-0.6,0.7c-0.2,0.3-0.3,0.6-0.4,0.9L435.7,206.2L435.7,206.2z"/>
					<path class="st1" d="M463.4,201.7h2.9v12.4h-2.9v-1.3c-1.2,1.1-2.5,1.7-3.8,1.7c-1.7,0-3.1-0.6-4.2-1.9
						c-1.1-1.3-1.7-2.8-1.7-4.7s0.5-3.4,1.7-4.6c1.1-1.2,2.5-1.9,4.2-1.9c1.4,0,2.7,0.6,3.9,1.8V201.7L463.4,201.7z M456.6,207.8
						c0,1.2,0.3,2.2,1,2.9c0.6,0.8,1.5,1.1,2.5,1.1c1.1,0,1.9-0.4,2.6-1.1c0.6-0.8,1-1.7,1-2.9s-0.3-2.1-1-2.9
						c-0.6-0.7-1.5-1.1-2.5-1.1c-1,0-1.8,0.4-2.5,1.1C456.9,205.8,456.6,206.7,456.6,207.8L456.6,207.8z"/>
					<path class="st1" d="M472.4,194.4v19.7h-2.9v-19.7H472.4z"/>
					<path class="st1" d="M478.5,194.4v19.7h-2.9v-19.7H478.5z"/>
					<path class="st1" d="M490.2,206.1v8h-3v-19.6h3.4c1.6,0,2.9,0.1,3.7,0.4c0.9,0.2,1.6,0.7,2.2,1.3c1.1,1.1,1.7,2.5,1.7,4.2
						c0,1.8-0.6,3.2-1.8,4.3c-1.2,1.1-2.8,1.6-4.9,1.6L490.2,206.1L490.2,206.1z M490.2,203.3h1.1c2.7,0,4.1-1.1,4.1-3.1
						s-1.4-3-4.2-3h-1L490.2,203.3L490.2,203.3L490.2,203.3z"/>
					<path class="st1" d="M500.8,201.7h2.9v1.1c0.5-0.6,1-0.9,1.4-1.1c0.4-0.2,0.9-0.3,1.5-0.3c0.8,0,1.5,0.2,2.4,0.7l-1.3,2.6
						c-0.5-0.4-1.1-0.6-1.6-0.6c-1.6,0-2.3,1.2-2.3,3.5v6.4h-2.9L500.8,201.7L500.8,201.7L500.8,201.7z"/>
					<path class="st1" d="M509.7,207.8c0-1.8,0.6-3.3,1.9-4.6c1.3-1.3,2.8-1.9,4.7-1.9s3.4,0.6,4.7,1.9c1.3,1.3,1.9,2.8,1.9,4.7
						s-0.6,3.4-1.9,4.7c-1.3,1.2-2.9,1.9-4.8,1.9s-3.4-0.6-4.7-1.9C510.4,211.3,509.7,209.7,509.7,207.8L509.7,207.8z M512.7,207.8
						c0,1.2,0.3,2.2,1,2.9c0.7,0.7,1.6,1.1,2.7,1.1s2-0.4,2.7-1.1s1-1.7,1-2.9s-0.3-2.2-1-2.9c-0.7-0.7-1.6-1.1-2.7-1.1
						s-2,0.4-2.7,1.1S512.6,206.7,512.7,207.8L512.7,207.8z"/>
				</g>
				<g>
					<path class="st1" d="M448,203.9c0.1,0,0.2,0,0.4,0C448.3,203.9,448.2,203.9,448,203.9z"/>
					<path class="st1" d="M447.9,203.9C447.9,203.9,448,203.9,447.9,203.9L447.9,203.9c0.1,0,0.1,0,0.1,0c0.1,0,0.2,0,0.4,0
						c1.1,0.1,2.1,0.3,3,0.9v-2.6c-1.1-0.6-2.2-0.9-3.5-0.9c-1.9,0-3.5,0.6-4.8,1.9s-2,2.8-2,4.7s0.6,3.4,1.9,4.6
						c1.3,1.2,2.9,1.9,4.8,1.9c1.2,0,2.3-0.3,3.5-0.9v-2.6c-1,0.5-2,0.8-3,0.9c-0.2,0-0.4,0-0.6,0c-1.1,0-2-0.4-2.7-1.1
						s-1-1.7-1-2.9s0.4-2.1,1.1-2.8S446.8,203.9,447.9,203.9L447.9,203.9z"/>
					<path class="st1" d="M448,203.9L448,203.9C448,203.9,448,203.9,448,203.9C448,203.9,448,203.9,448,203.9z"/>
				</g>
			</g>
		</g>
		<g>
			<polygon class="st1" points="347.4,196.3 347.4,212.2 355.1,216.4 355.1,214.1 355.1,211.7 355.1,196.9 355.1,194.5 355.1,191.7 
							"/>
			<polygon class="st1" points="360.7,214.1 357.4,214.1 357.4,212.2 358.8,212.2 358.9,196.2 357.4,196.2 357.4,194.4 360.7,194.4 
							"/>
		</g>
	</g>
	<g>
		<path class="st0" d="M694.1,369.9c0-0.2-0.1-0.5-0.1-0.7c-0.7-5.6-3-10.9-6.5-15.4c-0.2-0.3-0.5-0.6-0.7-0.9l-25.5-30.6l13.5-11.6
			c12-10.3,14.7-28.1,6.3-41.5c-5.9-9.4-16.1-15-27.2-15c-4.5,0-8.9,0.9-13.1,2.8c-0.1,0-9.9,4.4-24.7,10.9l-24.7-29.7
			c-5.9-7.1-14.5-11.3-23.8-11.6h-0.1c-0.3,0-0.5,0-0.8,0H303.4c-0.3,0-0.5,0-0.8,0h-0.1c-9.2,0.3-17.9,4.5-23.8,11.6l-95.3,114.7
			c-0.2,0.3-0.5,0.6-0.7,0.9c-3.5,4.5-5.7,9.8-6.4,15.4c0,0.2-0.1,0.5-0.1,0.7c-1,8.6,1.6,17.5,7.2,24.2c4.1,4.9,7.7,9.1,10.7,12.7
			c5.9,7,9.8,11.6,12.6,14.8c1.4,1.7,2.5,2.9,3.3,3.8c-0.1,0.8-0.1,1.4-0.1,1.6c-0.7,8.8,2.3,17.6,8.3,24.2
			c-6.5,3.9-11.4,7.1-15.1,9.7c-3,2.1-5.3,3.9-7.2,5.6c-2.2,2-4.1,4.1-5.7,6.4c-0.4,0.5-0.7,1-1,1.6c-2.5,4.1-4.1,8.6-4.7,13.2
			c-0.7,5.5,0,11.2,2.2,16.5c5,12.1,16.6,19.9,29.7,19.9l0,0c4,0,7.9-0.8,11.7-2.2l28.3-11c4.3,4.1,9.6,6.9,15.5,8.2l26,5.5
			l-11.1,36.9l-9.2,30.3c-4,13.3,0.9,27.7,12.4,35.6c5.4,3.8,11.8,5.8,18.4,5.8c7,0,13.7-2.2,19.3-6.5l28.3-21.3l5.7-4.3l0.1-0.1
			l16.6-12.5l39-29.3l60.2,33.4l14,7.8c4.5,2.5,9.6,3.9,14.8,4c0.1,0,0.1,0,0.2,0c0.2,0,0.3,0,0.5,0c2.3,0,4.6-0.2,6.8-0.7
			c2.6-0.6,5.1-1.4,7.5-2.6c0.7-0.3,1.4-0.7,2-1.1c9.2-5.4,15.1-15.1,15.8-25.6c0-0.3,0-0.7,0-1h42.4c13.6,0,25.2-8.5,29.9-20.4
			c1.4-3.6,2.2-7.5,2.2-11.6l0.2-59.9c1.6-1.3,3-2.7,4.4-4.3l46-55.4l12.3-14.8l10.6-12.8C692.5,387.3,695.1,378.5,694.1,369.9
			L694.1,369.9z M676.2,385l-18,21.7l-3.4,4.1L607.2,468c-1.2,1.5-2.7,2.8-4.3,3.8l-3.3,2l-0.2,67.3c0,10-8.2,18.1-18.2,18.1h-44.2
			c-0.3,0-0.7,0-1,0c-1,0-1.9-0.2-2.8-0.4l-8.4-1.8v15.1c0,2.3-0.4,4.5-1.2,6.5c-1.5,3.8-4.1,7-7.7,9.1c-1.7,1-3.5,1.7-5.4,2.1
			c-4.3,0.9-8.8,0.2-12.6-1.9l-2-1.1L416,542.5l-54.5,41l-42.5,32c-3.2,2.4-6.9,3.7-10.9,3.7c-3.7,0-7.3-1.1-10.4-3.3
			c-6.5-4.5-9.3-12.6-7-20.1l9.2-30.4l15.5-51.3l-40.8-8.7c-4.3-0.9-8.2-3.4-10.8-6.9l-3.2-4.3l-37.8,14.7c-2.1,0.8-4.3,1.2-6.6,1.2
			c-7.4,0-14-4.4-16.8-11.2c-1.5-3.6-1.8-7.5-0.9-11.2c0.5-2.4,1.6-4.7,3-6.8c1-1.4,2.2-2.8,3.6-4.1c0.8-0.7,1.7-1.5,2.8-2.3
			c0.9-0.7,1.9-1.4,3-2.2c3.7-2.6,8.8-5.8,15.6-9.9c2.3-1.4,4.8-2.9,7.5-4.4l11-6.5l-11.4-5.8c-1.9-1-3.6-2.2-5.1-3.8
			c-3.5-3.7-5.2-8.8-4.8-13.8c0-0.3,0.1-1.7,0.4-4.2l0.5-3.9l-2.8-2.2c-0.8-0.9-3.1-3.5-6.2-7.1c-1.1-1.2-2.2-2.6-3.4-4
			c-5.8-6.8-13-15.4-18.3-21.7c-3.2-3.8-4.6-8.7-4.1-13.7c0-0.1,0-0.2,0-0.3c0.4-3.4,1.8-6.5,4-9.2l6.7-8.1l88.6-106.6
			c3.3-4,8.2-6.4,13.3-6.5h0.6l131.8,0.1l131.7-0.1h0.6c5.2,0.2,10,2.6,13.4,6.5l31.4,37.8l5.1-2.2c17.2-7.5,29.3-12.9,29.4-12.9
			c2.3-1,4.8-1.6,7.4-1.6c6.3,0,12,3.2,15.3,8.5c4.8,7.6,3.3,17.7-3.5,23.5l-24,20.5l27.5,33.1l6.7,8.1c2.2,2.6,3.6,5.8,4,9.2
			c0,0.1,0,0.2,0,0.3C680.8,376.3,679.4,381.2,676.2,385L676.2,385z"/>
		<g>
			<g>
				<path class="st0" d="M346.8,338c-2.9,2-6.1,4.7-9.1,7.4C340.3,342.8,343.3,340.3,346.8,338z"/>
				<path class="st0" d="M351.9,353.3c-0.9,0.3-1.7,0.6-2.6,1c-4.5,1.8-7.9,3.3-10.6,4.9c3-1.9,6.4-3.5,10.5-5
					C350.1,353.9,351,353.6,351.9,353.3L351.9,353.3z"/>
				<path class="st0" d="M406.2,356.5c-0.1-0.1-0.1-0.1-0.2-0.2c-4.1-8.9-9-6.9-19-7.7h0c-0.8-0.1-1.7-0.2-2.5-0.3h0
					c-6.7-0.6-14.4,0-22.7,2c0,0-0.1,0-0.2,0c0.6-0.1,1.1-0.3,1.7-0.4c0.5-0.1,1-0.2,1.6-0.4c0.1,0,0.2,0,0.3-0.1
					c6.3-1.4,13.1-2.1,19.7-1.3C391.2,349.1,402.9,347.6,406.2,356.5L406.2,356.5z"/>
				<path class="st0" d="M446.7,334c-6.9-2.2-15-4.7-19.6-5.8c-14.7-3.4-40.6-2.5-50.4-1c-5.8,0.9-12,2.4-17.7,4.5
					c5.2-2,11.1-3.6,17.7-4.6c9.4-1.4,35.3-2.5,50.4,1.1C434.1,329.8,440.6,331.9,446.7,334L446.7,334z"/>
				<path class="st0" d="M654.1,286.3L506.9,409.6v162.6l-92.4-51.3L308.1,601l30.4-100.7l-60.2-12.8l122.3-22.2L343,542.4
					l136.2-100.2l-79.1,1.5l94.9-57l57.3-37.2c2.9-1.8-196.5,88-196.5,88l-139.5,54.4c-1-2.5,33.1-22.2,61.9-38.2l-14.4-24.5
					l-21.9,0.2c0,0,12-152.6,165.7-140.5c22.7,1.8,40.1,8.2,53.4,16.1c2.7-11,10.8-18.7,31.4-18.7c24.3,0,17.9,39.1,17.9,39.1
					l-7.2,0l0,15.4c0,0-0.5-0.1-1.3-0.3c0.1,0.1,0.2,0.3,0.3,0.4l-24.2-4.4c-4.4-0.8-8.6-2.6-12.2-5.3
					c-10.4-7.9-36.1-24.8-66.6-25.9c-28-0.9-40.6,3.5-60.5,14.3c-33.1,17.9-79.8,78.1-62.7,103.5l15.9-21.2
					c-3.7,13.1-8.6,32.1-10.1,49.9c19.4-10.8,35.6-19.4,35.6-19.4s77.4-48.7,78.6-49.3l0.2-0.1l-0.2,0.2
					c-0.9,0.9-77.7,48.8-78.6,49.3c-0.2,0.1-16.4,8.8-35.6,19.5l-0.1,0.1v-0.2c1.5-17.8,6.4-36.6,10-49.4l-15.6,20.9l-0.1-0.1
					c-3.9-5.9-4.7-13.8-2.3-23.7c3.3-13.5,12.5-29.7,25.7-45.6c12.6-15.1,26.9-27.7,39.3-34.4c20-10.8,32.9-15.2,60.6-14.3
					c20.6,0.7,39,8.8,50.8,15.5c6.7,3.8,12.1,7.6,15.7,10.3c3.6,2.7,7.8,4.6,12.2,5.4l24,4.3c0,0,0,0,0,0c0-0.1-0.1-0.1-0.1-0.2
					l-0.2-0.2l0.2,0c0.5,0.1,0.9,0.2,1.1,0.2l0-15.3h7.3c0.2-1.4,3.3-23.2-5.4-33.5c-3-3.6-7.2-5.4-12.4-5.4
					c-18.2,0-28.1,5.9-31.3,18.7l0,0.1l-0.1-0.1c-15.4-9.1-33.3-14.5-53.3-16.1c-35-2.8-65.6,2.9-90.7,16.9
					c-20.1,11.1-36.8,27.6-49.7,48.9c-6.3,10.4-15.1,27.8-20.9,51.1c-3.3,13.2-4.2,22.5-4.3,23.5l21.8-0.2l0,0l14.4,24.5l-0.1,0
					c-40.1,22.3-62.1,35.8-61.9,38l139.4-54.4c0.5-0.2,49.6-22.4,98.2-44.2c28.5-12.8,51.2-23,67.5-30.3c9.7-4.3,17.2-7.7,22.3-9.9
					c8.5-3.8,8.5-3.8,8.6-3.6c0,0,0,0.1-0.1,0.1L495,386.8l-94.7,56.8l79.1-1.5l-0.2,0.1L342.6,542.8l0.4-0.5l57.6-76.9l-121.7,22.1
					l59.8,12.7l-30.4,100.5l106.2-79.9l0,0l92.3,51.2V409.6l0,0l146.8-122.9c-15.5,6.9-140.3,62.1-152.2,62.1
					c-16.6,0-25.6-3.5-34.7-7.3c1,0.4,2,0.7,3,1c0,0,0,0,0,0c8.3,2.9,16.6,5.2,25.6,5.9c0,0,0.1,0,0.1,0c2,0.2,4,0.2,6,0.2
					C514,348.7,653,286.8,654.1,286.3L654.1,286.3z"/>
				<path class="st0" d="M351.9,353.3c-0.9,0.3-1.8,0.6-2.6,0.9c-4.2,1.5-7.6,3-10.5,5c-0.4,0.3-0.8,0.5-1.2,0.8
					c2.9-1.8,6.6-3.6,11.8-5.6c2.2-0.9,4.4-1.6,6.4-2.3C354.4,352.5,353.1,352.9,351.9,353.3z M405.8,370.6c-0.3,1-0.6,2-1,3
					c0.5-0.9,0.9-1.9,1.2-2.9s0.5-2,0.6-3C406.4,368.6,406.1,369.6,405.8,370.6L405.8,370.6z M406.2,356.5c-3.3-8.9-15-7.4-21.4-8.3
					c-6.6-0.9-13.4-0.1-19.7,1.3c8.4-1.8,14.8-1.7,19.3-1.2h0c0.1,0,0.2,0,0.3,0c0.7,0.1,1.4,0.2,2.2,0.2h0c6.3,0.6,15.7,1.1,19,7.7
					c0.2,0.4,0.4,0.9,0.6,1.4C406.5,357.3,406.4,356.9,406.2,356.5L406.2,356.5z M653.8,286.4c-14.3,6.4-140.5,62.2-152.4,62.2
					c-2.1,0-4.1-0.1-6-0.2c0,0-0.1,0-0.1,0c-11.2-0.7-18.6-3.1-25.6-5.9c0,0,0,0,0,0c-1-0.3-2-0.7-3-1c9.1,3.8,18.1,7.3,34.7,7.3
					c11.9,0,136.6-55.2,152.2-62.1L506.8,409.5l0,0V572l-92.3-51.2l0,0l-106.2,79.9l30.4-100.5l-59.8-12.7l121.7-22.1l-57.6,76.9
					l-0.4,0.5l136.7-100.6l0.2-0.1l-79.1,1.5l94.7-56.8l57.3-37.2c0.1,0,0.1-0.1,0.1-0.1c-0.1-0.1-0.1-0.1-8.6,3.6
					c-5.1,2.3-12.6,5.6-22.3,9.9c-16.3,7.3-39,17.5-67.5,30.3c-48.5,21.8-97.7,43.9-98.2,44.2l-139.4,54.4
					c-0.2-2.2,21.8-15.7,61.9-38l0.1,0l-14.4-24.5l0,0l-21.9,0.2c0.1-1,1-10.3,4.3-23.5c5.8-23.3,14.6-40.7,20.9-51.1
					c12.9-21.3,29.6-37.7,49.7-48.9c25.1-13.9,55.6-19.6,90.7-16.9c20,1.6,38,7,53.3,16.1l0.1,0.1l0-0.1
					c3.2-12.7,13.1-18.7,31.3-18.7c5.2,0,9.4,1.8,12.4,5.4c8.8,10.3,5.6,32.1,5.4,33.5h-7.3l0,15.3c-0.2,0-0.6-0.1-1.1-0.2l-0.2,0
					l0.2,0.2c0,0.1,0.1,0.1,0.1,0.2c0,0,0,0,0,0l-24-4.3c-4.5-0.8-8.6-2.7-12.2-5.4c-3.6-2.7-9-6.5-15.7-10.3
					c-11.8-6.7-30.2-14.8-50.8-15.5c-27.7-0.9-40.5,3.4-60.6,14.3c-12.4,6.7-26.7,19.2-39.3,34.4c-13.3,16-22.4,32.2-25.7,45.6
					c-2.4,9.8-1.7,17.8,2.3,23.7l0.1,0.1l15.6-20.9c-3.6,12.8-8.5,31.7-10,49.4v0.2l0.1-0.1c19.2-10.6,35.4-19.4,35.6-19.5
					c0.9-0.5,77.6-48.4,78.6-49.3l0.2-0.2c0.1-0.1,0.1-0.1,0.2-0.2c-0.1,0.1-0.3,0.1-0.5,0.2c-1.2,0.5-77.7,48.8-78.6,49.3
					c-0.2,0.1-16.3,8.8-35.4,19.4c1.5-17.9,6.5-36.9,10.1-49.7l0.1-0.5L275.8,423c-3.9-5.8-4.6-13.7-2.2-23.4
					c3.3-13.4,12.5-29.6,25.7-45.6c12.6-15.1,26.9-27.6,39.2-34.3c20-10.8,32.8-15.2,60.5-14.3c20.6,0.7,38.9,8.8,50.7,15.4
					c12.8,7.2,20.7,14.4,20.8,14.4l0,0l31.7,5.7l-0.1-0.2c-0.1-0.1-0.1-0.1-0.2-0.2c0.7,0.1,1,0.2,1.1,0.2l0.2,0v-15.4h7.2v-0.1
					c0-0.1,0.9-5.8,0.7-12.8c-0.4-11.7-3.5-17.8-6.2-20.9c-3.1-3.6-7.3-5.5-12.5-5.5c-18.2,0-28.2,5.9-31.5,18.7
					c-15.4-9.1-33.3-14.5-53.3-16.1c-35.1-2.8-65.6,2.9-90.8,16.9c-20.1,11.2-36.9,27.6-49.8,48.9c-11.5,18.9-17.7,38.3-20.9,51.2
					c-3.5,14-4.3,23.6-4.3,23.7v0.1l21.9-0.2l14.3,24.4c-17.6,9.8-31.8,17.9-42.1,24.1c-6.4,3.8-11.3,7-14.6,9.2
					c-5,3.5-5.4,4.5-5.2,4.9l0,0.1l139.6-54.5c1.9-0.9,182.6-82.2,195.8-87.8l-56.7,36.8l-94.9,57l-0.2,0.1l79.1-1.5L343.4,542
					l57.4-76.6l0.1-0.2l-122.5,22.2l-0.4,0.1l60.5,12.8L308,600.9l-0.1,0.2L414.5,521l92.3,51.3l0.1,0.1V409.7L654.6,286
					L653.8,286.4L653.8,286.4z M376.8,327.1c-6.6,1-12.5,2.6-17.7,4.6C364.7,329.6,371,328.1,376.8,327.1c9.8-1.4,35.7-2.3,50.4,1.1
					c4.5,1.1,12.7,3.5,19.6,5.8c-6.1-2.2-12.6-4.2-19.5-5.9C412.1,324.7,386.2,325.7,376.8,327.1L376.8,327.1z M346.8,338.1
					c-3.4,2.3-6.5,4.8-9.1,7.4C340.6,342.7,343.9,340.1,346.8,338.1z M361.6,350.4c-0.1,0-0.2,0-0.3,0.1c-0.3,0.1-0.7,0.2-1,0.3
					c-1.2,0.3-2.4,0.7-3.6,1.1c1.6-0.5,3.3-1,5.1-1.4c0.5-0.1,1-0.3,1.5-0.4C362.7,350.1,362.1,350.2,361.6,350.4z M396.1,382.9
					c5.3-2.6,7.3-5.7,8.6-9.3C402.9,376.9,399.5,379.6,396.1,382.9z M406.6,357.8c0.6,2.5,0.7,5.8,0,9.9
					C407.6,363.5,407.5,360.3,406.6,357.8z"/>
				<path class="st0" d="M501.4,348.8c-16.6,0-25.6-3.5-34.7-7.3c-6.5-2.3-13-5-20-7.4c-6.9-2.2-15-4.7-19.6-5.8
					c-14.7-3.4-40.6-2.5-50.4-1c-5.8,0.9-12,2.4-17.7,4.5c5.2-2,11.1-3.6,17.7-4.6c9.4-1.4,35.3-2.5,50.4,1.1
					c7,1.6,13.4,3.7,19.5,5.9c3.3,1.1,6.4,2.1,8.6,2.9c4.1,1.4,7.8,3,11.4,4.6c1,0.4,2,0.7,3,1c-4.6-1.9-9.1-4-14.3-5.8
					c-6.8-2.4-21.4-7.1-28.1-8.6c-14.7-3.4-40.6-2.5-50.4-1c-9.3,1.4-19.8,4.5-27.1,8.9c-5.9,3.5-14.8,11.3-19.2,16.6
					c-7.5,9.1-18.8,30.3-12,29.7l1.6,3.7l0.4-0.6c3.8-6.6,5.8-11.3,7.9-15.1c2.8-4.4,5.8-7.6,9.3-10.2c0.4-0.3,0.8-0.6,1.2-0.8
					c3-1.9,6.4-3.5,10.5-5c0.8-0.3,1.7-0.6,2.6-0.9c2.8-1,5.6-1.9,8.3-2.6c0.3-0.1,0.7-0.2,1-0.3c0.1,0,0.2,0,0.3-0.1
					c0.6-0.1,1.1-0.3,1.7-0.4c0.5-0.1,1-0.2,1.6-0.4c0.1,0,0.2,0,0.3-0.1c6.3-1.4,13.1-2.1,19.7-1.3c6.4,0.8,18.1-0.7,21.4,8.3
					c0.4,1.2,4.4,17-10.3,26.5l-0.2,0.2c-0.9,0.9-77.7,48.8-78.6,49.3c-0.2,0.1-16.4,8.8-35.6,19.5l-0.1,0.1v-0.2
					c1.5-17.8,6.4-36.6,10-49.4l-15.6,20.9l-0.1-0.1c-3.9-5.9-4.7-13.8-2.3-23.7c3.3-13.5,12.5-29.7,25.7-45.6
					c12.6-15.1,26.9-27.7,39.3-34.4c20-10.8,32.9-15.2,60.6-14.3c20.6,0.7,39,8.8,50.8,15.5c6.7,3.8,12.1,7.6,15.7,10.3
					c3.6,2.7,7.8,4.6,12.2,5.4l24,4.3c0,0,0,0,0,0c0-0.1-0.1-0.1-0.1-0.2l-0.2-0.2l0.2,0c0.5,0.1,0.9,0.2,1.1,0.2l0-15.3h7.3
					c0.2-1.4,3.3-23.2-5.4-33.5c-3-3.6-7.2-5.4-12.4-5.4c-18.2,0-28.1,5.9-31.3,18.7l0,0.1l-0.1-0.1c-15.4-9.1-33.3-14.5-53.3-16.1
					c-35-2.8-65.6,2.9-90.7,16.9c-20.1,11.1-36.8,27.6-49.7,48.9c-6.3,10.4-15.1,27.8-20.9,51.1c-3.3,13.2-4.2,22.5-4.3,23.5
					l21.8-0.2l0,0l14.4,24.5l-0.1,0c-40.1,22.3-62.1,35.8-61.9,38l139.4-54.4c0.5-0.2,49.6-22.4,98.2-44.2
					c28.5-12.8,51.2-23,67.5-30.3c9.7-4.3,17.2-7.7,22.3-9.9c8.5-3.8,8.5-3.8,8.6-3.6c0,0,0,0.1-0.1,0.1L495,386.8l-94.7,56.8
					l79.1-1.5l-0.2,0.1L342.6,542.8l0.4-0.5l57.6-76.9l-121.7,22.1l59.8,12.7l-30.4,100.5l106.2-79.9l0,0l92.3,51.2V409.6l0,0
					l146.8-122.9C638,293.6,513.3,348.8,501.4,348.8L501.4,348.8z M337.7,345.4c2.6-2.6,5.7-5.1,9.1-7.4
					C343.9,340.1,340.6,342.7,337.7,345.4z M346.9,338c1-0.7,1.9-1.3,2.8-1.8c2.6-1.6,5.7-3,9-4.2
					C354.3,333.6,350.4,335.7,346.9,338L346.9,338z"/>
			</g>
			<g>
				<polygon class="st0" points="581.7,385.5 581.3,541.1 537.1,541.1 537.1,516.1 556.4,516.1 556.7,409.4 				"/>
				<path class="st0" d="M581.4,541.2H537V516h19.2l0.3-106.7l0,0l25.2-24.1L581.4,541.2L581.4,541.2z M537.2,541h44l0.4-155.3
					l-24.9,23.8l-0.3,106.8h-19.2L537.2,541L537.2,541z"/>
			</g>
		</g>
		<g>
			<path class="st2" d="M598.2,296.4c-7.7,3.5-14.2,6.4-19,8.5c-20.6,8.8-37.8,15.9-51,21.1c-2.4,0.9-4.5,1.8-6.5,2.5l0.2-1.1
				c0.1-0.7,1.1-7.1,0.9-15.2c-0.4-12.3-3.5-21.9-9.1-28.6c-5.5-6.5-13.1-9.9-22.1-9.9c-12.4,0-22,2.4-29.4,7.4
				c-2.9,2-5.4,4.3-7.5,6.9c-14.1-6.4-29.9-10.3-46.9-11.6c-6.1-0.5-12.1-0.7-17.9-0.7c-33.9,0-63.5,8.1-88.2,24.1
				c-19.8,12.8-36.2,30.6-48.8,52.9c-10.4,18.4-16.4,36.7-19.9,50.7l-24.9-29.9l95.3-114.7l131.7,0.1l131.7-0.1L598.2,296.4
				L598.2,296.4z"/>
			<g>
				<polygon class="st3" points="599.8,353.8 599.7,353.8 599.8,353.8 				"/>
				<polygon class="st2" points="662.2,373.4 599.5,456.4 599.8,353.8 624.1,327.5 				"/>
			</g>
		</g>
		<g>
			<polygon class="st0" points="581.7,385.5 581.3,541.1 537.1,541.1 537.1,516.1 556.4,516.1 556.7,409.4 			"/>
			<path class="st0" d="M581.4,541.2H537V516h19.2l0.3-106.7l0,0l25.2-24.1L581.4,541.2L581.4,541.2z M537.2,541h44l0.4-155.3
				l-24.9,23.8l-0.3,106.8h-19.2L537.2,541L537.2,541z"/>
		</g>
		<g>
			<path class="st0" d="M513.2,596.7l11.2,5.9c-37.2,48.1-134.9,46.7-172.1-1.5l6.5-3.8c-0.8-1.1-0.6-2.6,0.5-3.4l56.2-42.3
				c0.8-0.6,1.8-0.6,2.6-0.2l76.8,42.6c3.8,2.1,8,3.2,12.2,3.2l0,0C508.8,597.3,514.4,595.2,513.2,596.7L513.2,596.7z"/>
			<path class="st0" d="M435.2,637.3L435.2,637.3c-29,0-55.9-13.2-73.6-36.1l-2.9-3.8c-0.4-0.5-0.6-1.2-0.5-1.9s0.4-1.3,1-1.7
				l56.2-42.3c0.8-0.6,1.9-0.7,2.7-0.2l76.8,42.6c3.7,2.1,7.9,3.2,12.1,3.2l0,0c1,0,1.8,0.5,2.2,1.4s0.3,1.9-0.3,2.6
				C491,624.2,464.2,637.4,435.2,637.3L435.2,637.3z M416.7,551.3c-0.5,0-1,0.2-1.4,0.5l-56.2,42.3c-0.5,0.4-0.8,0.9-0.9,1.5
				s0.1,1.2,0.5,1.7l2.9,3.8c17.7,22.9,44.5,36.1,73.5,36.1s55.8-13.1,73.5-36.1l0.1,0l-0.1,0c0.5-0.7,0.6-1.6,0.2-2.4
				c-0.4-0.8-1.2-1.3-2.1-1.3l0,0c-4.3,0-8.5-1.1-12.2-3.2l-76.8-42.6C417.5,551.4,417.1,551.3,416.7,551.3L416.7,551.3z"/>
		</g>
	</g>
	<g>
		<path class="st1" d="M104.6,761.3c-7.2,0-13.4-0.5-18.3-1.5c-4.8-1-10-2.8-15.2-5.3v-25.7c5.5,2.8,11.3,5,17.2,6.6
			c6.1,1.6,11.8,2.5,16.9,2.5c4.5,0,7.8-0.8,9.9-2.4c2.1-1.6,3.2-3.7,3.2-6.2c0-1.6-0.4-3-1.3-4.1c-0.8-1.2-2.2-2.3-4.1-3.5
			c-1.8-1.2-6.8-3.5-14.7-7.1c-7.1-3.2-12.5-6.4-16-9.4c-3.5-3-6.2-6.5-7.9-10.4c-1.7-3.9-2.6-8.6-2.6-13.9c0-10,3.7-17.8,10.9-23.4
			c7.3-5.6,17.4-8.4,30.2-8.4c11.2,0,22.7,2.6,34.4,7.7l-8.8,22.3c-10.1-4.6-19-7-26.4-7c-3.9,0-6.8,0.7-8.6,2.1
			c-1.8,1.4-2.8,3.2-2.8,5.3c0,2.3,1.2,4.3,3.5,6.1c2.2,1.7,8.4,4.9,18.2,9.3c9.4,4.2,16,8.8,19.6,13.6c3.6,4.8,5.5,10.9,5.5,18.2
			c0,6.7-1.7,12.8-5.1,18c-3.4,5.2-8.4,9.3-14.8,12.2C121,759.8,113.3,761.3,104.6,761.3"/>
		<path class="st1" d="M201,761.3c-14.8,0-26.4-3.8-34.3-11.4c-7.9-7.6-12-18.6-12-32.8v-66.5h29.2v64.1c0,7.8,1.5,13.6,4.4,17.1
			c3,3.6,7.4,5.4,13.1,5.4c6.1,0,10.7-1.8,13.4-5.3c2.8-3.5,4.2-9.3,4.2-17.3v-64h29v65.8c0,14.2-4.1,25.4-12.1,33.2
			S216.1,761.3,201,761.3"/>
		<path class="st1" d="M261.8,759.8V650.6h37.7c13.7,0,24.2,3,31,9c6.9,6,10.3,14.6,10.3,25.6c0,12.1-3.6,21.6-10.8,28.2
			c-7.1,6.6-17.4,9.9-30.6,9.9h-8.7v36.5L261.8,759.8L261.8,759.8z M290.8,699.8h5.8c4.5,0,8.2-1.3,10.9-3.8c2.7-2.6,4-6.1,4-10.6
			c0-7.6-4.3-11.5-12.7-11.5h-8L290.8,699.8L290.8,699.8z"/>
		<polygon class="st1" points="347.3,759.8 347.3,650.6 411.8,650.6 411.8,673.8 376.3,673.8 376.3,691.7 409.2,691.7 409.2,714.9 
			376.3,714.9 376.3,736.3 411.8,736.3 411.8,759.8 		"/>
		<path class="st1" d="M483.9,759.8l-23.3-40h-8v40h-29V650.6h35.7c14.8,0,26,2.7,33.4,8c7.3,5.3,11.1,13.4,11.1,24.1
			c0,12.5-6.2,22.4-18.5,29.2l-0.3,0.2l31.9,47.7H483.9L483.9,759.8z M452.5,698.2h5.9c10.5,0,15.9-4.7,15.9-14.1
			c0-7.8-5.2-11.7-15.6-11.7h-6.2V698.2z"/>
		<path class="st1" d="M519.9,759.8V650.6h37.7c13.7,0,24.2,3,31,9c6.8,6,10.3,14.6,10.3,25.6c0,12.1-3.6,21.6-10.8,28.2
			c-7.1,6.6-17.4,9.9-30.6,9.9H549v36.5L519.9,759.8L519.9,759.8z M549,699.8h5.8c4.5,0,8.2-1.3,10.9-3.8c2.7-2.6,4-6.1,4-10.6
			c0-7.6-4.3-11.5-12.7-11.5h-8L549,699.8L549,699.8z"/>
		<path class="st1" d="M665.7,759.8l-23.3-40h-8v40h-29V650.6H641c14.8,0,26,2.7,33.4,8c7.3,5.3,11.1,13.4,11.1,24.1
			c0,12.5-6.2,22.4-18.5,29.2l-0.3,0.2l31.9,47.7H665.7L665.7,759.8z M634.4,698.2h5.9c10.5,0,15.9-4.7,15.9-14.1
			c0-7.8-5.2-11.7-15.6-11.7h-6.2V698.2z"/>
		<path class="st1" d="M746.2,761.3c-17.1,0-30.3-4.8-39.4-14.4s-13.7-23.7-13.7-42s4.6-32.1,13.6-41.7c9-9.5,22.4-14.4,39.6-14.4
			s30.6,4.8,39.5,14.2c8.9,9.5,13.4,23.6,13.4,41.9s-4.5,32.4-13.5,41.9S763.5,761.3,746.2,761.3 M746.3,672.6
			c-15,0-22.7,10.9-22.7,32.5s7.6,32.2,22.5,32.2c7.6,0,13.3-2.7,17-7.9c3.7-5.2,5.5-13.4,5.5-24.3s-1.9-19.2-5.6-24.5
			C759.4,675.2,753.7,672.6,746.3,672.6"/>
	</g>
	<g>
		<path class="st0" d="M64.1,280.2l-2,5.2l-19.9-7.6l-2.5,6.7l-4.3-1.6l7.1-18.6l4.3,1.6l-2.5,6.7C44.2,272.6,64.1,280.2,64.1,280.2
			z"/>
		<path class="st0" d="M62.9,257.5l9,4.2l-2.3,5.1l-23.5-10.9l3.2-7c1.5-3.2,3.2-5.4,5-6.4c1.9-1,4-1,6.4,0.1
			c1.4,0.6,2.4,1.6,3.2,2.9c0.7,1.3,1.1,2.8,1,4.5c6.9-1.1,11.4-1.9,13.4-2.3l-2.6,5.6l-11.6,1.5L62.9,257.5L62.9,257.5z
			 M58.8,255.6l0.8-1.6c0.7-1.6,1-2.9,0.8-3.9c-0.2-1-0.8-1.8-1.9-2.3c-1.1-0.5-2.1-0.5-2.9,0.1c-0.8,0.6-1.6,1.6-2.4,3.3l-0.7,1.5
			L58.8,255.6L58.8,255.6z"/>
		<path class="st0" d="M89.1,227.8l-6.3-1.3l-4.6,8.4l4.5,4.7l-2.9,5.3L61.5,224l3.3-6l27.2,4.5L89.1,227.8L89.1,227.8z M78.1,225.4
			c-5.7-1.2-9-1.8-9.7-2c-0.7-0.2-1.3-0.3-1.7-0.4c1.1,1.1,3.8,3.9,8.2,8.4L78.1,225.4L78.1,225.4z"/>
		<path class="st0" d="M96.3,191.4c3.6,2.3,5.6,5.2,6.2,8.5c0.5,3.3-0.4,6.9-3,10.8l-4.1,6.2l-21.6-14.2l4.5-6.9
			c2.3-3.6,5.1-5.8,8.2-6.5C89.7,188.4,93,189.2,96.3,191.4L96.3,191.4z M93.3,196.3c-4.6-3.1-8.3-2.5-11,1.7l-1.6,2.5l14.1,9.3
			l1.3-2C98.9,203.2,98,199.4,93.3,196.3L93.3,196.3z"/>
		<path class="st0" d="M121.6,179.6l-9.1,12.1l-20.6-15.7l9.1-12.1l3.6,2.7l-5.8,7.6l4.5,3.4l5.4-7.1l3.6,2.7l-5.4,7.1l5.3,4.1
			l5.8-7.6L121.6,179.6L121.6,179.6z"/>
		<path class="st0" d="M145.8,151.6l-10.2,11.2l-19-17.6l10.2-11.2l3.3,3.1l-6.4,7.1l4.2,3.9l6-6.6l3.3,3.1l-6,6.6l4.9,4.5l6.4-7.1
			L145.8,151.6L145.8,151.6z"/>
		<path class="st0" d="M167.1,130.6l-4.6,4.4l-11.1-2.9l2.4,11.3l-4.3,4.1l-2.9-15.7l-14.5-3.4l4.4-4.3l10.5,2.8l-2.4-10.6l4.3-4.2
			l2.9,15L167.1,130.6L167.1,130.6z"/>
		<path class="st0" d="M166.8,102.4c-1.6,1.3-2.4,3-2.2,4.9c0.1,1.9,1.1,4,2.8,6.1c3.7,4.4,7.2,5.3,10.6,2.4c1.4-1.2,2.8-3,4.3-5.3
			l2.9,3.6c-1.1,2.1-2.6,3.9-4.7,5.7c-2.9,2.4-5.9,3.4-8.9,3c-3-0.5-5.9-2.3-8.6-5.6c-1.7-2.1-2.8-4.2-3.4-6.4
			c-0.5-2.2-0.4-4.3,0.3-6.3s2.1-3.8,4-5.4c1.9-1.6,4.3-2.8,7.1-3.5l1.5,4.6c-1.1,0.3-2.1,0.6-3,1
			C168.4,101.3,167.6,101.8,166.8,102.4L166.8,102.4z"/>
		<path class="st0" d="M205,100.5l-12.2,8.9l-15.2-21l12.2-8.9l2.6,3.7l-7.7,5.7l3.4,4.6l7.1-5.3l2.6,3.6l-7.1,5.3l3.9,5.4l7.7-5.7
			L205,100.5L205,100.5z"/>
		<path class="st0" d="M212.2,95.5l-14-21.9l4.7-3l11.5,18l8.9-5.8l2.4,3.8C225.8,86.7,212.2,95.5,212.2,95.5z"/>
		<path class="st0" d="M232.5,82.7l-12.6-22.7l4.8-2.7L235.2,76l9.3-5.2l2.2,4L232.5,82.7L232.5,82.7z"/>
		<path class="st0" d="M267.2,64.6l-13.6,6.6l-11.2-23.4l13.6-6.6l2,4.1l-8.6,4.2l2.5,5.1l8-3.9l2,4.1l-8,3.9l2.9,6l8.6-4.2
			L267.2,64.6L267.2,64.6z"/>
		<path class="st0" d="M296.7,52.3l-6.5,2.6l-17.8-14l-0.1,0.1c1.5,3.1,2.5,5.4,3,6.8l4.5,11.4l-4.6,1.8l-9.6-24.2l6.5-2.6L289.8,48
			l0.1,0c-1.4-3.1-2.4-5.3-2.9-6.5L282.5,30l4.6-1.9L296.7,52.3L296.7,52.3z"/>
		<path class="st0" d="M310.1,25c-2,0.6-3.3,1.9-3.9,3.7s-0.5,4.1,0.3,6.7c1.7,5.5,4.7,7.6,8.9,6.3c1.8-0.6,3.7-1.7,6-3.3l1.4,4.4
			c-1.8,1.5-3.9,2.6-6.5,3.4c-3.6,1.2-6.8,0.9-9.4-0.7c-2.6-1.6-4.5-4.4-5.8-8.5c-0.8-2.6-1-5-0.7-7.2s1.2-4.1,2.7-5.8
			c1.5-1.6,3.4-2.8,5.7-3.5c2.4-0.8,5-1,7.9-0.6l-0.4,4.8c-1.1-0.1-2.1-0.2-3.2-0.3S311,24.7,310.1,25L310.1,25z"/>
		<path class="st0" d="M346.1,37.8l-14.6,3.6l-6.1-25.2l14.6-3.6L341,17l-9.2,2.3l1.4,5.5l8.6-2.1l1.1,4.4l-8.6,2.1l1.6,6.5l9.2-2.3
			L346.1,37.8z"/>
		<path class="st0" d="M391.4,30.2l-6.7,0.9l-2.3-1.7c-2,1.9-4.5,3-7.3,3.4c-2.9,0.4-5.3,0.1-7.1-1c-1.9-1.1-3-2.7-3.3-5
			c-0.2-1.6-0.1-3,0.5-4.3s1.6-2.5,3.2-3.7c-1-0.9-1.8-1.8-2.3-2.6s-0.9-1.8-1-2.9c-0.2-1.8,0.2-3.3,1.5-4.6s3-2.1,5.3-2.4
			c2.2-0.3,4-0.1,5.5,0.8s2.3,2.1,2.5,3.8c0.2,1.4,0,2.7-0.7,4c-0.7,1.3-1.8,2.6-3.5,3.9l5.7,4.2c0.6-1.5,1.1-3.4,1.4-5.6l5.6-0.8
			c-0.2,1.6-0.6,3.3-1.1,4.9c-0.5,1.6-1.2,3.1-2,4.4L391.4,30.2L391.4,30.2z M374.9,12.2c-0.1-0.6-0.4-1.1-0.8-1.4s-1-0.4-1.7-0.3
			c-0.8,0.1-1.4,0.4-1.8,0.8s-0.6,1-0.5,1.7c0.1,1,0.9,2.1,2.2,3.2c0.9-0.7,1.6-1.4,2.1-2C374.8,13.6,375,12.9,374.9,12.2
			L374.9,12.2z M370.3,25.6c0.1,1,0.6,1.8,1.5,2.2c0.8,0.5,1.9,0.6,3.1,0.5c1.5-0.2,2.8-0.8,3.9-1.6l-6.7-5
			c-0.6,0.6-1.1,1.2-1.4,1.9S370.2,24.8,370.3,25.6z"/>
		<path class="st0" d="M421.1,6.6c-2.1,0.1-3.7,0.9-4.8,2.5c-1.1,1.6-1.6,3.8-1.5,6.6c0.2,5.8,2.5,8.6,6.9,8.4
			c1.8-0.1,4-0.6,6.6-1.6l0.2,4.6c-2.1,1-4.5,1.5-7.1,1.6c-3.8,0.1-6.8-0.9-8.9-3.1c-2.1-2.2-3.2-5.5-3.4-9.8
			c-0.1-2.7,0.3-5.1,1.2-7.1c0.9-2.1,2.3-3.7,4.1-4.8s4-1.8,6.5-1.9c2.5-0.1,5.1,0.4,7.7,1.5l-1.6,4.5c-1-0.4-2-0.8-3-1.1
			S422.1,6.6,421.1,6.6L421.1,6.6z"/>
		<path class="st0" d="M461.7,15.9c-0.1,4.3-1.3,7.6-3.6,9.8c-2.2,2.2-5.3,3.3-9.4,3.1s-7-1.4-9.1-3.8c-2.1-2.4-3-5.7-2.9-10.1
			c0.1-4.3,1.4-7.6,3.6-9.8s5.4-3.2,9.4-3.1s7,1.4,9.1,3.8C460.9,8.2,461.8,11.6,461.7,15.9L461.7,15.9z M442.6,15.2
			c-0.1,2.9,0.4,5.1,1.4,6.6s2.7,2.3,4.9,2.4c4.4,0.2,6.7-2.7,7-8.5c0.2-5.9-1.9-8.9-6.3-9c-2.2-0.1-3.9,0.6-5.1,2
			S442.7,12.3,442.6,15.2z"/>
		<path class="st0" d="M480.7,30.9l-3.8-21l-0.2,0c-0.3,4.1-0.5,6.9-0.7,8.3l-1.5,12l-4.9-0.6l3.2-25.8l7.5,0.9l3.7,20.5h0.1
			l8.9-18.9l7.5,0.9l-3.2,25.8l-5.1-0.6l1.5-12.2c0.1-0.6,0.2-1.2,0.3-2s0.4-2.7,1-6l-0.2,0l-9.2,19.4L480.7,30.9L480.7,30.9z"/>
		<path class="st0" d="M517.9,37l-1.8-21.3l-0.2,0c-0.7,4.1-1.1,6.8-1.4,8.2l-2.6,11.8l-4.8-1.1l5.6-25.4l7.4,1.6l1.8,20.8l0.1,0
			l10.7-18l7.4,1.6l-5.6,25.4l-5-1.1l2.6-12c0.1-0.6,0.3-1.2,0.5-2s0.7-2.7,1.5-5.9l-0.2,0l-10.9,18.4L517.9,37L517.9,37z"/>
		<path class="st0" d="M571.8,24.9l-5,16.1c-0.6,1.8-1.5,3.3-2.7,4.4c-1.3,1.1-2.8,1.8-4.6,2c-1.8,0.2-3.8,0-5.9-0.6
			c-3.2-1-5.5-2.6-6.7-4.8c-1.3-2.2-1.5-4.7-0.6-7.5l5-16l5.3,1.7l-4.7,15.2c-0.6,1.9-0.6,3.4-0.2,4.6c0.5,1.1,1.6,2,3.4,2.5
			c1.7,0.5,3.1,0.5,4.2-0.2c1.1-0.7,1.9-2,2.5-3.9l4.7-15.1L571.8,24.9L571.8,24.9z"/>
		<path class="st0" d="M594.7,61.7l-6.5-2.7l-3.2-22.5l-0.2-0.1c-1.1,3.3-1.9,5.7-2.5,7l-4.5,11.3l-4.6-1.9l9.7-24.1l6.5,2.6
			l3.3,22.3l0.1,0c1.1-3.2,1.9-5.5,2.4-6.7l4.6-11.4l4.6,1.9L594.7,61.7L594.7,61.7z"/>
		<path class="st0" d="M603.5,65.9l11.1-23.5l5,2.4l-11.1,23.5L603.5,65.9z"/>
		<path class="st0" d="M626.4,77.6l-4.9-2.7l10.1-18.8l-6.2-3.4l2.2-4l17.4,9.4l-2.2,4l-6.2-3.4L626.4,77.6L626.4,77.6z"/>
		<path class="st0" d="M653.9,76.1l10.3-6.2l5.1,3.2l-15.7,8.8l-5.3,8.6l-4.7-2.9l5.2-8.4l1.1-18.2l5.1,3.2L653.9,76.1L653.9,76.1z"
			/>
		<path class="st0" d="M671.5,106.6l15.7-20.6l4.4,3.4l-13,17l8.4,6.5l-2.8,3.6L671.5,106.6z"/>
		<path class="st0" d="M701.7,131.4l-11.4-9.9l16.9-19.6l11.4,9.9l-2.9,3.4l-7.2-6.3l-3.7,4.3l6.7,5.8l-2.9,3.4l-6.7-5.8l-4.4,5.1
			l7.2,6.3L701.7,131.4L701.7,131.4z"/>
		<path class="st0" d="M719.5,148.7l3-5.7l-6.8-6.8l-5.7,3.1l-4.2-4.2l24.8-12l4.8,4.8l-11.7,25.1L719.5,148.7L719.5,148.7z
			 M724.8,138.7c2.7-5.2,4.2-8.2,4.5-8.9s0.7-1.2,0.9-1.6c-1.3,0.8-4.8,2.7-10.3,5.6L724.8,138.7z"/>
		<path class="st0" d="M752.3,165.6c-3.2,2.8-6.5,4-9.8,3.7c-3.3-0.4-6.5-2.3-9.5-5.8l-4.9-5.6l19.5-17.1l5.4,6.2
			c2.8,3.2,4.1,6.5,4,9.8C756.9,160,755.4,162.9,752.3,165.6L752.3,165.6z M748.5,161.3c4.2-3.7,4.7-7.4,1.4-11.1l-1.9-2.2
			L735.2,159l1.6,1.8C740.3,164.9,744.2,165,748.5,161.3L748.5,161.3z"/>
		<path class="st0" d="M756.9,193.2l-9.1-12.1l20.6-15.7l9.1,12.1l-3.6,2.7l-5.7-7.6l-4.5,3.4l5.3,7.1l-3.6,2.7l-5.3-7.1l-5.3,4
			l5.7,7.6L756.9,193.2L756.9,193.2z"/>
		<path class="st0" d="M773.2,199.6l-8.3,5.5l-3-4.7l21.6-14.3l4.2,6.4c2,3,2.9,5.6,2.7,7.7s-1.3,3.9-3.5,5.4
			c-1.3,0.8-2.6,1.2-4.1,1.2s-2.9-0.6-4.3-1.5c-2.7,6.5-4.4,10.8-5.2,12.7l-3.4-5.2l4.8-10.7L773.2,199.6L773.2,199.6z M776.9,197.1
			l1,1.5c1,1.5,1.9,2.4,2.9,2.8c0.9,0.4,1.9,0.2,3-0.4c1-0.7,1.5-1.5,1.5-2.5c0-1-0.5-2.3-1.5-3.8l-0.9-1.4L776.9,197.1L776.9,197.1
			z"/>
		<path class="st0" d="M790.5,233.6c-2,1.2-4,1.3-6,0.5s-3.8-2.6-5.3-5.2c-1.4-2.4-2.2-4.9-2.3-7.2l4.4-2.5c0.2,1.9,0.5,3.5,0.8,4.7
			c0.3,1.2,0.7,2.3,1.2,3.2c0.6,1.1,1.3,1.8,2,2.1s1.5,0.3,2.3-0.2c0.4-0.2,0.8-0.6,1-1.1s0.3-1,0.4-1.7s0-1.9-0.2-3.8
			c-0.1-1.8-0.1-3.2,0.1-4.2c0.2-1,0.6-2,1.1-2.9c0.5-0.9,1.4-1.6,2.4-2.2c2-1.1,3.9-1.3,5.8-0.6s3.5,2.3,4.9,4.7
			c0.7,1.2,1.2,2.4,1.5,3.6s0.6,2.6,0.7,4.1l-4.6,0.6c-0.2-1.5-0.4-2.7-0.7-3.6c-0.3-0.9-0.6-1.8-1-2.5c-0.5-0.9-1.1-1.5-1.8-1.8
			s-1.4-0.2-2.1,0.2c-0.4,0.2-0.7,0.6-0.9,0.9c-0.2,0.4-0.3,0.9-0.4,1.5s0,1.9,0.2,4c0.2,2.7,0,4.8-0.5,6.1
			C793,231.6,792,232.7,790.5,233.6L790.5,233.6z"/>
		<path class="st0" d="M797.3,263.7l-2.4-5l10.1-4.8l-4.5-9.4l-10.1,4.8l-2.4-5l23.3-11.2l2.4,5l-9.1,4.4l4.5,9.4l9.1-4.4l2.4,5
			L797.3,263.7L797.3,263.7z"/>
		<path class="st0" d="M801.1,273l24-9.8l2.1,5.2l-23.9,9.8L801.1,273L801.1,273z"/>
		<path class="st0" d="M829.5,298.9c-2.6,0.9-4.9,0.8-6.9-0.4s-3.5-3.3-4.5-6.4l-0.8-2.3l-8.7,3l-1.8-5.3l24.4-8.5l2.7,8
			c1,3,1.2,5.5,0.4,7.5C833.7,296.5,832,298,829.5,298.9L829.5,298.9z M821.6,288.3l0.6,1.7c0.6,1.6,1.3,2.7,2.2,3.3s2,0.7,3.2,0.3
			c1.2-0.4,2-1.1,2.3-2c0.3-0.9,0.3-2-0.2-3.5l-0.8-2.4L821.6,288.3L821.6,288.3z"/>
	</g>
</g>
<g>
	<polygon class="st4" points="29.3,515 20.2,509.6 11.1,515 13.5,504.7 5.6,497.7 16,496.8 20.2,487.1 24.4,496.8 34.9,497.8 
		27,504.7 	"/>
	<polygon class="st4" points="38.2,579.9 29.2,574.5 20.1,579.9 22.4,569.7 14.5,562.7 25,561.7 29.2,552 33.3,561.7 43.8,562.7 
		35.9,569.7 	"/>
	<polygon class="st4" points="26.1,446.6 17.1,441.2 8,446.6 10.3,436.4 2.4,429.4 12.9,428.4 17.1,418.7 21.2,428.4 31.7,429.4 
		23.8,436.4 	"/>
	<g>
		<polygon class="st4" points="843.5,510.9 852.5,505.5 861.6,510.8 859.3,500.6 867.2,493.6 856.7,492.6 852.5,482.9 848.3,492.6 
			837.8,493.6 845.8,500.6 		"/>
		<polygon class="st4" points="834.5,575.8 843.6,570.4 852.6,575.8 850.3,565.5 858.2,558.5 847.8,557.6 843.6,547.9 839.4,557.6 
			828.9,558.6 836.8,565.5 		"/>
		<polygon class="st4" points="846.6,442.5 855.7,437.1 864.7,442.5 862.4,432.2 870.3,425.2 859.8,424.3 855.7,414.6 851.5,424.3 
			841,425.3 848.9,432.2 		"/>
	</g>
</g>
</svg>
